<svg width="18" height="20" viewBox="0 0 18 20" fill="none" xmlns="http://www.w3.org/2000/svg">
<g clip-path="url(#clip0_0_25545)" filter="url(#filter0_d_0_25545)">
<path fill-rule="evenodd" clip-rule="evenodd" d="M13.0619 9.33333C13.2531 9.33311 13.4428 9.36997 13.6217 9.44212L12.2311 3.05592C12.2231 3.01943 12.221 2.98178 12.2248 2.94454L12.3036 2.17167C12.3726 1.5081 12.1537 0.847251 11.7091 0.377C11.483 0.135675 11.1761 0.000178699 10.8561 0.000416667C10.8513 0.000416667 10.8464 0.00025 10.8415 0H5.82355C7.8713 0.237037 7.29558 3.33333 7.29558 3.33333L7.87843 6L8.38665 8.33333L8.60429 9.33333H13.0619ZM5.21388 2.76915e-06H5.20043C4.83862 0.00229951 4.49688 0.17759 4.26943 0.477544C4.04012 0.77763 3.9507 1.17231 4.02627 1.55088L5.83295 10.6765C5.9892 11.4472 6.62775 11.9979 7.36743 12H13.0619C13.58 12 14 11.5523 14 11C14 10.4477 13.58 10 13.0619 10H8.35569C8.21016 10.0001 8.08381 9.89312 8.05092 9.742L7.74436 8.33334L7.23621 6L6.59712 3.07563C6.5956 3.06871 6.59431 3.06179 6.59321 3.05479L6.59009 3.03479C6.5854 3.00487 6.58457 2.97441 6.58762 2.94425L6.6658 2.1705C6.73435 1.50747 6.51575 0.847262 6.07194 0.377003C5.84403 0.135185 5.53544 -0.000395987 5.21388 2.76915e-06Z" fill="#C2C6D2"/>
</g>
<defs>
<filter id="filter0_d_0_25545" x="-1" y="0" width="20" height="20" filterUnits="userSpaceOnUse" color-interpolation-filters="sRGB">
<feFlood flood-opacity="0" result="BackgroundImageFix"/>
<feColorMatrix in="SourceAlpha" type="matrix" values="0 0 0 0 0 0 0 0 0 0 0 0 0 0 0 0 0 0 127 0" result="hardAlpha"/>
<feOffset dy="4"/>
<feGaussianBlur stdDeviation="2"/>
<feComposite in2="hardAlpha" operator="out"/>
<feColorMatrix type="matrix" values="0 0 0 0 0 0 0 0 0 0 0 0 0 0 0 0 0 0 0.25 0"/>
<feBlend mode="normal" in2="BackgroundImageFix" result="effect1_dropShadow_0_25545"/>
<feBlend mode="normal" in="SourceGraphic" in2="effect1_dropShadow_0_25545" result="shape"/>
</filter>
<clipPath id="clip0_0_25545">
<rect width="12" height="12" fill="white" transform="translate(3)"/>
</clipPath>
</defs>
</svg>
